<?xml version="1.0" encoding="iso-8859-1"?>
<!-- Generator: Adobe Illustrator 16.0.0, SVG Export Plug-In . SVG Version: 6.00 Build 0)  -->
<!DOCTYPE svg PUBLIC "-//W3C//DTD SVG 1.1//EN" "http://www.w3.org/Graphics/SVG/1.1/DTD/svg11.dtd">
<svg version="1.1" id="Layer_1" xmlns="http://www.w3.org/2000/svg" xmlns:xlink="http://www.w3.org/1999/xlink" x="0px" y="0px"
	 width="31.831px" height="30.987px" viewBox="0 0 31.831 30.987" style="enable-background:new 0 0 31.831 30.987;"
	 xml:space="preserve">
<g>
	<path d="M0,14.692h14.69V0H0V14.692z M4.07,6.593h2.521V4.07h1.505v2.523h2.522v1.504H8.097v2.523H6.592V8.098H4.07V6.593z"/>
	<path d="M0,30.987h14.69V16.296H0V30.987z M4.07,22.889h6.549v1.504H4.07V22.889z"/>
	<path d="M17.139,0v14.692h14.692V0H17.139z M27.806,9.13l-1.063,1.063L24.96,8.409l-1.785,1.785L22.111,9.13l1.783-1.785
		l-1.783-1.784l1.063-1.063l1.784,1.784l1.785-1.784l1.063,1.064l-1.783,1.784L27.806,9.13z"/>
	<path d="M17.139,30.987h14.692V16.296H17.139V30.987z M25.985,27.068c-0.063,0.148-0.151,0.278-0.26,0.387
		c-0.109,0.109-0.236,0.197-0.388,0.267c-0.147,0.068-0.307,0.102-0.476,0.102c-0.171,0-0.329-0.033-0.479-0.102
		c-0.148-0.069-0.277-0.157-0.387-0.267c-0.109-0.109-0.196-0.238-0.261-0.387c-0.063-0.149-0.097-0.309-0.097-0.478
		c0-0.169,0.033-0.329,0.097-0.478c0.064-0.149,0.151-0.278,0.261-0.387c0.109-0.109,0.238-0.195,0.387-0.261
		c0.149-0.064,0.308-0.096,0.479-0.096c0.169,0,0.328,0.032,0.476,0.096c0.151,0.065,0.278,0.151,0.388,0.261
		c0.108,0.109,0.196,0.238,0.26,0.387c0.064,0.149,0.098,0.308,0.098,0.478C26.083,26.76,26.05,26.919,25.985,27.068z
		 M23.736,20.215c0.064-0.148,0.151-0.278,0.261-0.387c0.109-0.109,0.238-0.197,0.387-0.267c0.149-0.068,0.308-0.102,0.479-0.102
		c0.169,0,0.328,0.034,0.476,0.102c0.151,0.069,0.278,0.158,0.388,0.267c0.108,0.109,0.196,0.239,0.26,0.387
		c0.064,0.149,0.098,0.308,0.098,0.478c0,0.169-0.033,0.329-0.098,0.478c-0.063,0.149-0.151,0.278-0.26,0.387
		c-0.109,0.109-0.236,0.196-0.388,0.261c-0.147,0.065-0.307,0.096-0.476,0.096c-0.171,0-0.329-0.031-0.479-0.096
		c-0.148-0.065-0.277-0.152-0.387-0.261s-0.196-0.237-0.261-0.387c-0.063-0.149-0.097-0.309-0.097-0.478
		C23.64,20.523,23.673,20.364,23.736,20.215z M21.663,22.755h6.59v1.85h-6.59V22.755z"/>
</g>
<g>
</g>
<g>
</g>
<g>
</g>
<g>
</g>
<g>
</g>
<g>
</g>
<g>
</g>
<g>
</g>
<g>
</g>
<g>
</g>
<g>
</g>
<g>
</g>
<g>
</g>
<g>
</g>
<g>
</g>
</svg>
